<?xml version="1.0" standalone="no"?>
<!DOCTYPE svg PUBLIC "-//W3C//DTD SVG 20010904//EN"
 "http://www.w3.org/TR/2001/REC-SVG-20010904/DTD/svg10.dtd">
<svg version="1.0" xmlns="http://www.w3.org/2000/svg"
 width="440.000000pt" height="440.000000pt" viewBox="0 0 440.000000 440.000000"
 preserveAspectRatio="xMidYMid meet">
<metadata>
Created by potrace 1.11, written by Peter Selinger 2001-2013
</metadata>
<g transform="translate(0.000000,440.000000) scale(0.100000,-0.100000)"
fill="#000000" stroke="none">
<path d="M3068 3685 c-2 -2 -18 -5 -37 -8 -18 -3 -38 -10 -43 -15 -6 -6 -11
-277 -12 -706 -1 -575 -4 -698 -15 -705 -8 -5 -66 -17 -130 -26 -64 -10 -123
-21 -133 -26 -11 -6 -30 -1 -60 16 -44 26 -144 61 -259 93 -106 30 -383 19
-634 -24 -157 -27 -204 -36 -230 -44 -16 -5 -52 -16 -79 -25 -57 -17 -69 -19
-62 -6 7 11 86 56 261 146 72 37 171 91 220 119 50 29 117 67 150 86 138 76
342 220 409 288 171 175 185 278 52 407 -39 38 -73 59 -142 87 -112 45 -282
85 -401 93 -48 3 -108 8 -133 11 -62 6 -419 6 -448 0 -13 -3 -51 -8 -85 -11
-34 -3 -73 -8 -87 -10 -14 -3 -38 -7 -55 -9 -43 -7 -269 -46 -297 -51 -13 -3
-52 -8 -88 -11 -36 -4 -80 -13 -98 -20 -28 -11 -33 -18 -30 -40 6 -49 69 -77
133 -60 18 5 280 62 330 72 84 16 115 21 116 15 0 -3 2 -15 4 -25 2 -11 7 -54
10 -95 4 -42 9 -92 11 -111 7 -53 14 -351 14 -579 1 -158 -2 -208 -13 -225
-15 -22 -210 -137 -289 -171 -92 -39 -110 -78 -56 -118 34 -25 92 -24 232 4
54 11 104 18 111 15 9 -3 12 -58 12 -208 0 -175 5 -264 17 -328 1 -8 8 -55 16
-105 16 -105 44 -145 100 -145 48 0 90 29 90 62 0 15 -4 30 -10 33 -5 3 -10
18 -10 33 0 15 -6 59 -14 97 -17 83 -28 252 -31 459 -1 122 1 151 14 166 37
41 411 131 614 147 112 9 263 9 338 0 86 -10 215 -64 260 -109 117 -116 109
-240 -25 -443 -51 -75 -123 -149 -261 -266 -22 -19 -42 -37 -45 -40 -3 -3 -36
-29 -75 -57 -250 -185 -332 -235 -500 -305 -33 -14 -91 -44 -130 -66 -38 -23
-73 -41 -78 -41 -10 0 -244 -114 -332 -163 -61 -33 -185 -80 -241 -91 -11 -2
-53 -14 -94 -27 -85 -26 -226 -33 -252 -12 -12 10 -13 24 -7 70 5 32 11 83 14
113 4 30 11 59 16 64 19 21 -2 96 -27 96 -22 0 -92 -92 -130 -170 -39 -80 -51
-136 -40 -195 13 -68 128 -117 260 -110 193 9 439 80 683 196 70 33 137 64
148 69 61 25 148 69 272 137 76 42 162 86 190 99 86 39 333 207 403 274 36 35
99 90 140 123 41 32 91 77 110 100 19 22 56 62 83 88 26 26 47 54 47 61 0 8
12 30 26 49 40 54 83 143 86 180 3 52 -13 161 -29 192 -8 16 -12 31 -9 35 3 3
6 2 6 -1 0 -4 11 -2 24 3 13 5 54 11 90 15 63 5 66 4 67 -17 0 -13 2 -93 4
-178 3 -85 7 -272 9 -415 3 -143 7 -282 10 -310 4 -27 8 -77 11 -110 8 -93 14
-112 47 -140 55 -46 149 -25 166 38 9 34 8 88 -3 147 -4 19 -8 40 -9 45 -1 6
-4 15 -8 20 -7 12 -15 84 -24 205 -3 47 -7 105 -9 130 -2 25 -7 171 -10 325
-6 307 -6 308 53 319 18 3 47 9 65 12 17 3 64 12 102 21 132 28 121 30 120
-24 0 -26 3 -60 6 -75 4 -15 3 -30 -2 -34 -5 -3 -6 -11 -2 -17 10 -16 10 -37
1 -64 -4 -13 -4 -23 0 -23 4 0 7 -17 7 -37 -1 -21 3 -65 8 -98 6 -33 9 -95 8
-138 -1 -42 3 -103 10 -135 6 -31 12 -78 13 -103 2 -79 59 -113 120 -74 43 29
49 61 42 238 -4 89 -9 176 -11 192 -4 31 -16 271 -19 380 l-1 60 100 0 c55 1
119 -2 142 -5 23 -4 48 -3 55 1 7 5 9 9 4 9 -5 0 -3 6 3 14 11 13 11 31 -4 87
-6 23 -14 28 -53 35 -26 4 -89 8 -140 9 -70 0 -95 4 -103 15 -5 8 -7 50 -3 94
3 44 7 159 9 255 2 97 6 185 8 196 7 31 16 148 22 275 3 63 8 140 11 170 12
128 12 179 0 195 -15 21 -91 30 -127 15 -38 -16 -43 -35 -54 -205 -4 -55 -8
-127 -11 -160 -4 -55 -8 -131 -18 -360 -2 -44 -5 -170 -7 -280 -3 -260 -2
-257 -126 -269 -29 -2 -56 -7 -61 -10 -12 -7 -59 -16 -124 -22 -52 -5 -58 -4
-58 12 0 11 -3 93 -6 184 -6 172 -9 792 -4 965 6 197 -1 225 -53 230 -14 2
-27 2 -29 0z m-1262 -337 c5 -3 45 -9 89 -13 168 -14 205 -21 300 -57 108 -42
148 -69 170 -114 29 -61 25 -96 -17 -160 -72 -108 -209 -222 -393 -329 -55
-32 -118 -70 -140 -85 -58 -39 -411 -220 -429 -220 -12 0 -16 12 -17 53 0 28
-2 142 -4 252 -3 189 -12 384 -20 450 -2 17 -7 57 -10 90 -3 33 -8 72 -11 86
-5 28 8 44 41 51 28 7 429 3 441 -4z"/>
</g>
</svg>
